<?xml version="1.0" standalone="no"?>
<svg xmlns:xlink="http://www.w3.org/1999/xlink" id="wave" style="transform:rotate(0deg); transition: 0.3s" viewBox="0 0 1440 490" version="1.1" xmlns="http://www.w3.org/2000/svg"><defs><linearGradient id="sw-gradient-0" x1="0" x2="0" y1="1" y2="0"><stop stop-color="rgba(255, 64, 129, 1)" offset="0%"/><stop stop-color="rgba(255, 64, 129, 1)" offset="100%"/></linearGradient></defs><path style="transform:translate(0, 0px); opacity:1" fill="url(#sw-gradient-0)" d="M0,441L80,392C160,343,320,245,480,204.2C640,163,800,180,960,179.7C1120,180,1280,163,1440,171.5C1600,180,1760,212,1920,187.8C2080,163,2240,82,2400,106.2C2560,131,2720,261,2880,326.7C3040,392,3200,392,3360,383.8C3520,376,3680,359,3840,302.2C4000,245,4160,147,4320,106.2C4480,65,4640,82,4800,114.3C4960,147,5120,196,5280,196C5440,196,5600,147,5760,171.5C5920,196,6080,294,6240,302.2C6400,310,6560,229,6720,212.3C6880,196,7040,245,7200,294C7360,343,7520,392,7680,351.2C7840,310,8000,180,8160,147C8320,114,8480,180,8640,187.8C8800,196,8960,147,9120,163.3C9280,180,9440,261,9600,269.5C9760,278,9920,212,10080,204.2C10240,196,10400,245,10560,236.8C10720,229,10880,163,11040,171.5C11200,180,11360,261,11440,302.2L11520,343L11520,490L11440,490C11360,490,11200,490,11040,490C10880,490,10720,490,10560,490C10400,490,10240,490,10080,490C9920,490,9760,490,9600,490C9440,490,9280,490,9120,490C8960,490,8800,490,8640,490C8480,490,8320,490,8160,490C8000,490,7840,490,7680,490C7520,490,7360,490,7200,490C7040,490,6880,490,6720,490C6560,490,6400,490,6240,490C6080,490,5920,490,5760,490C5600,490,5440,490,5280,490C5120,490,4960,490,4800,490C4640,490,4480,490,4320,490C4160,490,4000,490,3840,490C3680,490,3520,490,3360,490C3200,490,3040,490,2880,490C2720,490,2560,490,2400,490C2240,490,2080,490,1920,490C1760,490,1600,490,1440,490C1280,490,1120,490,960,490C800,490,640,490,480,490C320,490,160,490,80,490L0,490Z"/></svg>